<svg version="1.1" xmlns="http://www.w3.org/2000/svg" 
xmlns:xlink="http://www.w3.org/1999/xlink" 
viewBox="-1260 -700 2355 1613" 
>
    <defs>
        <filter id="blur">
            <feGaussianBlur stdDeviation="3" />
        </filter>
        <circle id="def-circle2" cx="0" cy="0" r = "2%" fill = "#F59902" opacity = ".5" />
        <circle id="def-circle50" cx="0" cy="0" r = "85" stroke = "#F59902" strokeWidth = "10" fill = "none" opacity = ".9" filter="url(#blur)"/>
        <circle id="def-circle85" cx="0" cy="0" r = "120" stroke = "#F59902" strokeWidth = "8" fill = "none" opacity = ".9" filter="url(#blur)"/>
        <circle id="def-circle09" cx="0" cy="0" r = "8%" stroke = "#F59902" strokeWidth = "5" fill = "none" opacity = ".9" filter="url(#blur)"/>
        <circle id="def-circle14" cx="0" cy="0" r = "12%" stroke = "#F59902" strokeWidth = "3" fill = "none" opacity = ".9" filter="url(#blur)"/>
        <circle id="def-circle19" cx="0" cy="0" r = "19%" stroke = "#F59902" strokeWidth = "3" fill = "none" opacity = ".9" filter="url(#blur)"/>
        <circle id="def-circle28" cx="0" cy="0" r = "28%" stroke = "#F59902" strokeWidth = "3" fill = "none" opacity = ".9" filter="url(#blur)"/>
        <circle cx="0" cy="0" r = "25%" stroke = "#F59902" strokeWidth = "3" fill = "none" opacity = ".9" filter="url(#blur)"/>
        <!-- <circle  id="def-circle25" cx="0" cy="0" r="10%" filter="url(#blur)" /> -->
        <circle id="def-scale-circle" cx="0" cy="0" r="30%" opacity=".1"/>
    </defs>
    <use xlink:href="#def-scale-circle" style="fill:#F59902;" transform="translate(0 0)">
        <animateTransform attributeName="transform" 
        type="scale"
        additive="sum"    
        from="0 0"
        to="1 1"      
        beg="0s"
        dur="2s"
        repeatCount="indefinite" />
    </use>
    <use x="0" y="0" style="stroke:#F59902; stroke-width: 6; fill: none;" xlink:href="#def-circle2" />
    <use x="0" y="0" style="stroke:#F59902; stroke-width: 6; fill: none;" xlink:href="#def-circle50" />
    <use x="0" y="0" style="stroke:#F59902; stroke-width: 5; fill: none;" xlink:href="#def-circle85" />
    <use x="0" y="0" style="stroke:#F59902; stroke-width: 3; fill: none;" xlink:href="#def-circle09" />
    <use x="0" y="0" style="stroke:#F59902; stroke-width: 3; fill: none;" xlink:href="#def-circle14" />
    <use x="0" y="0" style="stroke:#F59902; stroke-width: 3; fill: none;" xlink:href="#def-circle19" />
    <use x="0" y="0" style="stroke:#F59902; stroke-width: 3; fill: none;" xlink:href="#def-circle28" />
    <use x="0" y="0" style="stroke:#F59902; stroke-width: 3; fill: none;" xlink:href="#def-circle25" />

    <svg x="-350" y="-230" viewBox="1150 250 1955 913">
                <defs>
                    <style>
                    { ' .marginLeft{ -100px } ' } 
                       { ' .a{fill:#f2f2f2 } ' } 
                       { ' .b{fill:#fff} ' } 
                       { ' .c{fill:#3c3f42} ' } 
                       { ' .d{opacity:0.4} ' } 
                       { ' .e, ' } 
                       { ' .h{fill:#70797c } ' } 
                       { ' .f{fill:#48d8a8 } ' } 
                       { ' .g{fill:#e6e6e6 } ' } 
                       { ' .h{opacity:0.3 } ' } 
                       { ' .i{fill:#F59902 } ' } 
                    </style>
                </defs>
                <circle className="a" cx="521.24" cy="169.92" r="11.26" transform="translate(10.26 592.36) rotate(-22.11)"/>
                <circle className="a" cx="1561.31" cy="278.61" r="11.26" transform="translate(9.94 608.08) rotate(-22.11)"/>
                <circle className="a" cx="1541.35" cy="278.03" r="11.26" transform="translate(8.69 600.53) rotate(-22.11)"/>
                <circle className="a" cx="1535.59" cy="256.7" r="11.26" transform="translate(16.29 596.79) rotate(-22.11)"/>
                <circle className="a" cx="1539.41" cy="266.57" r="11.26" transform="translate(12.86 598.96) rotate(-22.11)"/>
                <circle className="a" cx="1565.43" cy="259.63" r="11.26" transform="translate(17.38 608.24) rotate(-22.11)"/>
                <circle className="a" cx="1553.35" cy="268.49" r="11.26" transform="translate(13.16 604.34) rotate(-22.11)"/>
                <circle className="a" cx="1575.4" cy="269.36" r="6.48" transform="translate(14.45 612.71) rotate(-22.11)"/>
                <circle className="a" cx="1527.47" cy="282.97" r="6.48" transform="translate(5.81 595.67) rotate(-22.11)"/>
                <circle className="a" cx="1550.52" cy="255.07" r="6.48" transform="translate(18 602.29) rotate(-22.11)"/>
                <rect className="b" x="1556" y="248" width="35" height="49"/><circle className="a" cx="1280.29" cy="295.96" r="3.01"/>
                <rect className="c" x="1263.22" y="246.67" width="35.1" height="60.22" rx="7.47" ry="7.47"/>
                <g className="d">
                <circle className="b" cx="1280.32" cy="257.67" r="3"/>
                </g>
                <circle className="a" cx="1452.31" cy="100.97" r="18.48" transform="translate(68.78 554) rotate(-22.11)"/>
                <circle className="a" cx="1518.1" cy="115.23" r="18.48" transform="translate(68.25 579.81) rotate(-22.11)"/>
                <circle className="a" cx="1485.32" cy="114.29" r="18.48" transform="translate(66.19 567.4) rotate(-22.11)"/>
                <circle className="a" cx="1475.88" cy="79.26" r="18.48" transform="translate(78.68 561.27) rotate(-22.11)"/>
                <circle className="a" cx="1482.14" cy="95.48" r="18.48" transform="translate(73.04 564.82) rotate(-22.11)"/>
                <circle className="a" cx="1524.86" cy="84.07" r="18.48" transform="translate(80.47 580.06) rotate(-22.11)"/>
                <circle className="a" cx="1505.03" cy="98.62" r="18.48" transform="translate(73.54 573.67) rotate(-22.11)"/>
                <circle className="a" cx="1541.24" cy="100.05" r="10.64" transform="translate(75.66 587.4) rotate(-22.11)"/>
                <circle className="a" cx="1462.53" cy="122.4" r="10.64" transform="translate(61.46 559.42) rotate(-22.11)"/>
                <circle className="a" cx="1500.38" cy="76.58" r="10.64" transform="translate(81.49 570.3) rotate(-22.11)"/>
                <circle className="a" cx="1192.31" cy="148.97" r="18.48" transform="translate(31.6 459.68) rotate(-22.11)"/>
                <circle className="a" cx="1258.1" cy="163.23" r="18.48" transform="translate(31.07 485.49) rotate(-22.11)"/>
                <circle className="a" cx="1225.32" cy="162.29" r="18.48" transform="translate(29.01 473.08) rotate(-22.11)"/>
                <circle className="a" cx="1215.88" cy="127.26" r="18.48" transform="translate(41.5 466.95) rotate(-22.11)"/>
                <circle className="a" cx="1222.14" cy="143.48" r="18.48" transform="translate(35.86 470.5) rotate(-22.11)"/>
                <circle className="a" cx="1264.86" cy="132.07" r="18.48" transform="translate(43.29 485.74) rotate(-22.11)"/>
                <circle className="a" cx="1245.03" cy="146.62" r="18.48" transform="translate(36.36 479.35) rotate(-22.11)"/>
                <circle className="a" cx="1281.24" cy="148.05" r="10.64" transform="translate(38.48 493.08) rotate(-22.11)"/>
                <circle className="a" cx="1202.53" cy="170.4" r="10.64" transform="translate(24.28 465.1) rotate(-22.11)"/>
                <circle className="a" cx="1240.38" cy="124.58" r="10.64" transform="translate(44.31 475.98) rotate(-22.11)"/>
                <circle className="a" cx="1641.24" cy="139.92" r="11.26" transform="translate(68.01 627.97) rotate(-22.11)"/>
                <circle className="a" cx="1681.31" cy="148.61" r="11.26" transform="translate(67.69 643.69) rotate(-22.11)"/>
                <circle className="a" cx="1661.35" cy="148.03" r="11.26" transform="translate(66.43 636.13) rotate(-22.11)"/>
                <circle className="a" cx="1655.59" cy="126.7" r="11.26" transform="translate(74.04 632.4) rotate(-22.11)"/>
                <circle className="a" cx="1659.41" cy="136.57" r="11.26" transform="translate(70.6 634.56) rotate(-22.11)"/>
                <circle className="a" cx="1685.43" cy="129.63" r="11.26" transform="translate(75.13 643.84) rotate(-22.11)"/>
                <circle className="a" cx="1673.35" cy="138.49" r="11.26" transform="translate(70.91 639.95) rotate(-22.11)"/>
                <circle className="a" cx="1695.4" cy="139.36" r="6.48" transform="translate(72.2 648.31) rotate(-22.11)"/>
                <circle className="a" cx="1647.47" cy="152.97" r="6.48" transform="translate(63.55 631.27) rotate(-22.11)"/>
                <circle className="a" cx="1670.52" cy="125.07" r="6.48" transform="translate(75.75 637.89) rotate(-22.11)"/>
                <path className="e" d="M1541.17,93.74H1642a5.76,5.76,0,0,1,5.76,5.76v65.94a0,0,0,0,1,0,0H1535.41a0,0,0,0,1,0,0V99.5A5.76,5.76,0,0,1,1541.17,93.74Z"/><rect className="c" x="1524.68" y="161.83" width="133.29" height="6.5" rx="3.25" ry="3.25"/><circle className="a" cx="1535.29" cy="100.96" r="3.01"/>
                <rect className="c" x="1518.22" y="51.67" width="35.1" height="60.22" rx="7.47" ry="7.47"/>
                <circle className="f" cx="1535.32" cy="62.67" r="3"/>
                <rect className="g" x="1558.04" y="269.72" width="94.22" height="22.88" rx="2.61" ry="2.61" transform="matrix(1, 0, 0, 1, -0.79, 4.56)"/>
                <circle className="f" cx="1570.15" cy="281.26" r="4.04" transform="translate(-0.79 4.46) rotate(-0.16)"/>
                <rect className="g" x="1558.11" y="295.29" width="94.22" height="22.88" rx="2.69" ry="2.69" transform="matrix(1, 0, 0, 1, -0.86, 4.56)"/>
                <circle className="f" cx="1570.22" cy="306.83" r="4.04" transform="translate(-0.86 4.46) rotate(-0.16)"/><rect className="g" x="1557.82" y="193" width="94.22" height="22.88" rx="2.61" ry="2.61" transform="translate(-0.57 4.55) rotate(-0.16)"/>
                <circle className="f" cx="1569.93" cy="204.54" r="4.04" transform="translate(-0.57 4.46) rotate(-0.16)"/>
                <rect className="g" x="1557.89" y="218.57" width="94.22" height="22.88" rx="2.69" ry="2.69" transform="translate(-0.65 4.56) rotate(-0.16)"/>
                <circle className="h" cx="1570.01" cy="230.11" r="4.04" transform="translate(-0.65 4.46) rotate(-0.16)"/>
                <rect className="g" x="1557.96" y="244.15" width="94.22" height="22.88" rx="2.63" ry="2.63" transform="translate(-0.72 4.56) rotate(-0.16)"/>
                <circle className="h" cx="1570.08" cy="255.69" r="4.04" transform="translate(-0.72 4.46) rotate(-0.16)"/>
                <rect className="g" x="1194.04" y="368.72" width="94.22" height="22.88" rx="2.61" ry="2.61" transform="matrix(1, 0, 0, 1, -1.07, 3.52)"/>
                <circle className="f" cx="1206.15" cy="380.26" r="4.04" transform="translate(-1.07 3.42) rotate(-0.16)"/>
                <rect className="g" x="1193.82" y="292" width="94.22" height="22.88" rx="2.61" ry="2.61" transform="translate(-0.86 3.52) rotate(-0.16)"/>
                <circle className="f" cx="1205.93" cy="303.54" r="4.04" transform="translate(-0.86 3.42) rotate(-0.16)"/>
                <rect className="g" x="1193.89" y="317.57" width="94.22" height="22.88" rx="2.69" ry="2.69" transform="translate(-0.93 3.52) rotate(-0.16)"/>
                <circle className="h" cx="1206.01" cy="329.11" r="4.04" transform="translate(-0.93 3.42) rotate(-0.16)"/>
                <rect className="g" x="1193.96" y="343.15" width="94.22" height="22.88" rx="2.63" ry="2.63" transform="translate(-1 3.52) rotate(-0.16)"/>
                <circle className="h" cx="1206.08" cy="354.69" r="4.04" transform="translate(-1 3.42) rotate(-0.16)"/>
                <rect className="g" x="1273.82" y="92" width="94.22" height="22.88" rx="2.61" ry="2.61" transform="translate(-0.29 3.75) rotate(-0.16)"/>
                <circle className="f" cx="1285.93" cy="103.54" r="4.04" transform="translate(-0.29 3.65) rotate(-0.16)"/>
                <rect className="g" x="1273.89" y="117.57" width="94.22" height="22.88" rx="2.69" ry="2.69" transform="translate(-0.36 3.75) rotate(-0.16)"/>
                <circle className="h" cx="1286.01" cy="129.11" r="4.04" transform="translate(-0.36 3.65) rotate(-0.16)"/>
                <rect className="g" x="1273.96" y="143.15" width="94.22" height="22.88" rx="2.63" ry="2.63" transform="translate(-0.43 3.75) rotate(-0.16)"/>
                <circle className="h" cx="1286.08" cy="154.69" r="4.04" transform="translate(-0.43 3.65) rotate(-0.16)"/>
                <circle className="f" cx="1634.97" cy="106.74" r="3"/>
                <circle className="a" cx="1343.2" cy="317.42" r="22.2" transform="translate(-20.7 528.85) rotate(-22.11)"/>
                <circle className="a" cx="1422.22" cy="334.54" r="22.2" transform="translate(-21.34 559.85) rotate(-22.11)"/>
                <circle className="a" cx="1382.86" cy="333.41" r="22.2" transform="translate(-23.81 544.95) rotate(-22.11)"/>
                <circle className="a" cx="1371.51" cy="291.34" r="22.2" transform="translate(-8.81 537.59) rotate(-22.11)"/>
                <circle className="a" cx="1379.04" cy="310.82" r="22.2" transform="translate(-15.59 541.85) rotate(-22.11)"/>
                <circle className="a" cx="1430.34" cy="297.11" r="22.2" transform="translate(-6.66 560.15) rotate(-22.11)"/>
                <circle className="a" cx="1406.53" cy="314.59" r="22.2" transform="translate(-14.98 552.47) rotate(-22.11)"/>
                <circle className="a" cx="1450.01" cy="316.31" r="12.78" transform="translate(-12.43 568.97) rotate(-22.11)"/>
                <circle className="a" cx="1355.48" cy="343.15" r="12.78" transform="translate(-29.49 535.36) rotate(-22.11)"/>
                <circle className="a" cx="1400.94" cy="288.12" r="12.78" transform="translate(-5.44 548.43) rotate(-22.11)"/>
                <path className="e" d="M1390.69,320.74h121.09a6.92,6.92,0,0,1,6.92,6.92v79.2a0,0,0,0,1,0,0H1383.76a0,0,0,0,1,0,0v-79.2A6.92,6.92,0,0,1,1390.69,320.74Z"/>
                <rect className="c" x="1370.88" y="402.53" width="160.09" height="7.81" rx="3.9" ry="3.9"/>
                <g className="d">
                <circle className="b" cx="1505.7" cy="333.74" r="3"/>
                </g>
                <circle className="i" cx="1439.56" cy="228.44" r="32.44"/>
                <g className="d">
                <circle className="b" cx="1317.75" cy="84.74" r="3"/>
                </g>
                <rect className="e" x="1341.46" y="165.27" width="24.23" height="3.32" rx="1.66" ry="1.66" transform="translate(1520.5 -1186.65) rotate(90)"/>
                <rect className="e" x="1379.54" y="165.27" width="24.23" height="3.32" rx="1.66" ry="1.66" transform="translate(1558.58 -1224.72) rotate(90)"/>
                <rect className="c" x="1342.61" y="173.93" width="60" height="13.56" rx="3.14" ry="3.14"/>
                <circle className="f" cx="1395" cy="180.7" r="3"/>
                <rect className="e" x="1265.46" y="352.27" width="24.23" height="3.32" rx="1.66" ry="1.66" transform="translate(1631.5 -923.65) rotate(90)"/>
                <rect className="e" x="1303.54" y="352.27" width="24.23" height="3.32" rx="1.66" ry="1.66" transform="translate(1669.58 -961.72) rotate(90)"/>
                <rect className="c" x="1266.61" y="360.93" width="60" height="13.56" rx="3.14" ry="3.14"/>
                <circle className="f" cx="1319" cy="367.7" r="3"/>
                <rect className="e" x="1545.46" y="350.27" width="24.23" height="3.32" rx="1.66" ry="1.66" transform="translate(1909.5 -1205.65) rotate(90)"/>
                <rect className="e" x="1583.54" y="350.27" width="24.23" height="3.32" rx="1.66" ry="1.66" transform="translate(1947.58 -1243.72) rotate(90)"/>
                <rect className="c" x="1546.61" y="358.93" width="60" height="13.56" rx="3.14" ry="3.14"/>
                <g className="d">
                <circle className="b" cx="1599" cy="365.7" r="3"/>
                </g>
             
            </svg>
</svg>